<svg id="Capa_1" data-name="Capa 1" xmlns="http://www.w3.org/2000/svg" xmlns:xlink="http://www.w3.org/1999/xlink" viewBox="0 0 1175.13 474.82"><defs><style>.cls-1,.cls-5,.cls-9{fill:none;}.cls-1,.cls-2,.cls-7,.cls-8{stroke:#000;}.cls-1,.cls-12,.cls-2,.cls-5,.cls-6,.cls-7,.cls-8,.cls-9{stroke-miterlimit:10;}.cls-1{stroke-width:6px;}.cls-2{stroke-width:2px;}.cls-3{fill:url(#Degradado_sin_nombre_98);}.cls-4{fill:#7f3b16;}.cls-5,.cls-6{stroke:#633110;}.cls-6{fill:#633110;}.cls-7{fill:url(#Degradado_sin_nombre_88);}.cls-8{fill:#e3002f;}.cls-9{stroke:#a5002f;}.cls-10{fill:#a5002f;}.cls-11{fill:#ebff32;}.cls-12{fill:#dc000b;stroke:#dc000b;}.cls-13{fill:#eaff98;}</style><linearGradient id="Degradado_sin_nombre_98" x1="870.77" y1="368.91" x2="1179.76" y2="98.12" gradientUnits="userSpaceOnUse"><stop offset="0" stop-color="#ffdead"/><stop offset="0.01" stop-color="#fcdaa9"/><stop offset="0.18" stop-color="#daad7c"/><stop offset="0.35" stop-color="#bd8856"/><stop offset="0.52" stop-color="#a76a39"/><stop offset="0.68" stop-color="#985624"/><stop offset="0.85" stop-color="#8e4917"/><stop offset="1" stop-color="#8b4513"/></linearGradient><linearGradient id="Degradado_sin_nombre_88" x1="712.72" y1="380.03" x2="949.11" y2="172.86" gradientUnits="userSpaceOnUse"><stop offset="0" stop-color="#f0f"/><stop offset="0.04" stop-color="#fd01f1"/><stop offset="0.21" stop-color="#f504c4"/><stop offset="0.37" stop-color="#ef079e"/><stop offset="0.53" stop-color="#ea0881"/><stop offset="0.69" stop-color="#e70a6c"/><stop offset="0.85" stop-color="#e50b5f"/><stop offset="1" stop-color="#e40b5b"/><stop offset="1" stop-color="#e3002f"/></linearGradient></defs><path class="cls-1" d="M953.66,169.34c5.22,30.61,32.14-352.36,101.25,0" transform="translate(-8.46 -9.67)"/><ellipse class="cls-2" cx="1046.45" cy="159.67" rx="5.62" ry="5.98"/><ellipse class="cls-2" cx="945.2" cy="159.67" rx="5.62" ry="5.98"/><path class="cls-3" d="M888.42,117.2c-1.09-3.3,181.91,19.63,256.27-35.4,0,0-97.39,134.57-.18,283.54L844,362.07S931.27,246.92,888.42,117.2Z" transform="translate(-8.46 -9.67)"/><path class="cls-1" d="M969.68,162.69c5.22,30.61,32.14-352.36,101.25,0" transform="translate(-8.46 -9.67)"/><ellipse class="cls-2" cx="1062.47" cy="153.02" rx="5.62" ry="5.98"/><ellipse class="cls-2" cx="961.22" cy="153.02" rx="5.62" ry="5.98"/><path class="cls-4" d="M1144.51,365.34l37.45-13.9s-94.13-117.66-37.27-269.64C1144.69,81.8,1048.15,209,1144.51,365.34Z" transform="translate(-8.46 -9.67)"/><path class="cls-5" d="M1150.6,330.44s-70.94-89.63-5.91-248.64" transform="translate(-8.46 -9.67)"/><path class="cls-6" d="M1144.92,365.34s11.3-17.73,6.85-33.79c0,0,3.46,12.63,30.19,19.89Z" transform="translate(-8.46 -9.67)"/><path class="cls-7" d="M707,148.83c-1.09-3.3,181.92,19.63,256.27-35.4,0,0-97.39,134.58-.18,283.54L662.54,393.7S749.81,278.55,707,148.83Z" transform="translate(-8.46 -9.67)"/><path class="cls-8" d="M963.05,397l37.45-13.9s-94.13-117.66-37.27-269.64C963.23,113.43,866.69,240.64,963.05,397Z" transform="translate(-8.46 -9.67)"/><path class="cls-9" d="M969.14,362.07s-70.94-89.63-5.91-248.64" transform="translate(-8.46 -9.67)"/><path class="cls-1" d="M874.45,183.24c-5.22-30.61-32.14,352.36-101.25,0" transform="translate(-8.46 -9.67)"/><ellipse class="cls-2" cx="764.74" cy="173.57" rx="5.62" ry="5.98"/><ellipse class="cls-2" cx="865.99" cy="173.57" rx="5.62" ry="5.98"/><path class="cls-10" d="M963.46,397s11.3-17.73,6.85-33.79c0,0,3.46,12.63,30.19,19.89Z" transform="translate(-8.46 -9.67)"/><path class="cls-11" d="M172.7,270.41S70.25,254.74,31,298.79s0,83.75,0,83.75l-22.51,6L19.14,477l47.06-6.67,3.29-6.68s102.45,17.41,125.17-31.9v25.56l60.85-6.24,6.13-29.86s34.83-46.8,30.36-2.37,69.56,20.31,69.56,20.31l24.16-17.94s21.14,41.55,101,6V477l99.31-13.35,5-36.47s25,2.13,32.3-8.34c0,0-11.9,21.31,0,32.87,0,0-14.64,11.56-6,25.29,0,0,24.28,16.77,36.31,0,0,0,17,12.59,33.56-6.67,0,0,5.13,16.21,27.64,0,0,0,22.14,12,27.66-6.68,0,0,23.82,17.92,49.75-12.58,0,0,14.25-53.8-21.85-52.06S803,358.54,803,358.54l-32.49-36.08-.76-65.89-14.45-7.95s13-44.38-19.18-58.2-65.7,31.08-52,58.2-14.56,13.76-14.56,13.76-77-44-161.65,15.18c0,0-58.09-42.3-134.64,12.25,0,0-37.11-38.54-81.23-5V235.67l-94,26.71-10.15,15.18Z" transform="translate(-8.46 -9.67)"/><path d="M677.64,452.1c-.76.08-1.84.82-3.26,2.27-3.66,3.52-6.51,5.4-8.56,5.6a3.33,3.33,0,0,1-3.1-1.05c-.69-.84-1-2.6-1-5.31q0-2.5,1.87-11.09c1.24-5.72,2-8.71,2.2-9s1.79-.76,4.7-1.44,6.09-1.29,9.54-1.85q4.05-.66,4.06-3.65a1.92,1.92,0,0,0-.71-1.74c-.48-.3-1.62-.36-3.43-.18a49.23,49.23,0,0,0-5.36.9c-2.17.49-4.48.93-6.94,1.38l2.11-8a55.45,55.45,0,0,0,1.31-5.41,3.12,3.12,0,0,0-.85-2,2.59,2.59,0,0,0-2.39-.89q-2.51.26-3.37,4.21c-.59,2.67-1.26,5.37-2,8.12a19.84,19.84,0,0,1-1.71,4.87,1.87,1.87,0,0,1-1.32.83l-7.36.72a3.05,3.05,0,0,0-1,.26,2.67,2.67,0,0,0,.61-1.59c0-1.69-.42-2.85-1.29-3.45s-2.26-.82-4.19-.63c-3,.3-6.89,2.28-11.65,6s-7.16,8-7.18,12.88a6.07,6.07,0,0,0,2.53,4.9c1.7,1.38,5,3.1,9.79,5.2,3.79,1.66,5.69,3.3,5.68,4.9-.71,1.42-2.59,2.74-5.62,3.94a31.71,31.71,0,0,1-8.51,2.21,11.28,11.28,0,0,1-1.93-.19,9,9,0,0,0-2-.17,6.25,6.25,0,0,0-2.63.92,2.46,2.46,0,0,0-1.31,2.2c0,2.7,1.91,3.87,5.77,3.49a39.63,39.63,0,0,0,14.41-4.6q7.54-3.93,7.58-9.58a6.41,6.41,0,0,0-2.39-5.11,23,23,0,0,0-6.43-3.62,30.55,30.55,0,0,1-6.92-3.44,4.41,4.41,0,0,1-1.91-3.57q0-3.39,5.49-6.62t7.27-3.42a5.16,5.16,0,0,1,1.5.38,4.36,4.36,0,0,0,1.53.41,3.16,3.16,0,0,0,1-.67,2.58,2.58,0,0,0-.36,1.34c0,2.5,1.51,3.62,4.56,3.32l3.72-.69c.57-.06.85.1.85.47a74.67,74.67,0,0,1-1.79,9.68,63.51,63.51,0,0,0-1.84,12q0,10.53,8.61,9.68c3.45-.33,6.83-2.08,10.14-5.22s5-5.6,5-7.37C679.18,452.5,678.67,452,677.64,452.1Z" transform="translate(-8.46 -9.67)"/><path d="M711.4,425a10.07,10.07,0,0,0-9.25-3.65q-8.65.85-14.89,10.71T681,451.39a13.14,13.14,0,0,0,3.14,9.18,9,9,0,0,0,8.06,3.06q7.94-.76,15.31-9.7t7.42-18.51A15.57,15.57,0,0,0,711.4,425Zm-7.91,25.7c-3.6,4.38-7.16,6.74-10.71,7.08a4.07,4.07,0,0,1-4-2,10.3,10.3,0,0,1-1.5-5.93q0-6.61,4.19-14.31t9.91-8.26a5.82,5.82,0,0,1,5.51,2.29,11.25,11.25,0,0,1,2,7.16A21.79,21.79,0,0,1,703.49,450.66Z" transform="translate(-8.46 -9.67)"/><path d="M753.16,423.2a5.53,5.53,0,0,0-1.95-4.33,6.31,6.31,0,0,0-5.06-1.44,9.65,9.65,0,0,0-3.19.93,16.38,16.38,0,0,0-3.67,2.5,33.73,33.73,0,0,0-4.48,5,67.1,67.1,0,0,0-4.51,6.7,74.32,74.32,0,0,0-4.51,9.47,19.25,19.25,0,0,1-.87,1.92v-1l.05-1.37a73.47,73.47,0,0,1,.74-8.41,25.18,25.18,0,0,0,.41-2.67,36.24,36.24,0,0,1,1-4.12,17.4,17.4,0,0,0,.73-4.12,2.78,2.78,0,0,0-.65-1.81,2.13,2.13,0,0,0-2-.67,4.35,4.35,0,0,0-2.53,1.2,5.5,5.5,0,0,0-1.54,2.22,20.4,20.4,0,0,0-.64,4c-.18,1.74-.3,2.85-.37,3.33a101.07,101.07,0,0,0-.91,11.34q-.21,5.94-.21,7.66a35.09,35.09,0,0,0,.75,9c.51,1.74,1.36,2.56,2.52,2.45a4.51,4.51,0,0,0,2.83-1.2,7,7,0,0,0,1.37-3.93,49.59,49.59,0,0,1,8.09-21.28q6.61-10,10.34-10.32a3.36,3.36,0,0,1,2.67,1.11,3.33,3.33,0,0,0,2.74,1.1,2.76,2.76,0,0,0,2.13-1.13A3.64,3.64,0,0,0,753.16,423.2Z" transform="translate(-8.46 -9.67)"/><path d="M778.93,438.92c-.4,0-1,.51-1.79,1.4q-8,9.56-15.73,10.32c-2.23.22-3.92-.24-5.06-1.36a6.35,6.35,0,0,1-1.7-4.73,3.33,3.33,0,0,1,1.87-2.77A80.28,80.28,0,0,0,771,430.14c3.62-3.83,5.43-7.63,5.44-11.43a5.62,5.62,0,0,0-1.67-4.2,5.3,5.3,0,0,0-4.38-1.37q-8.17.8-15.11,11t-7,20.76c0,4.2,1,7.35,3.08,9.49s5,3,8.87,2.64q6.86-.67,13.33-6.62c4.31-4,6.48-7.21,6.49-9.72C780.07,439.43,779.69,438.86,778.93,438.92ZM761.12,424.6q4.14-5.37,7.43-5.71c1.29-.12,1.93.55,1.92,2q0,5.65-15.21,16.44A32.55,32.55,0,0,1,761.12,424.6Z" transform="translate(-8.46 -9.67)"/><path class="cls-12" d="M176.26,289.81l11.23,53-24.4,6.45A55,55,0,0,0,139,326a57.45,57.45,0,0,0-33.6-5.83,46.48,46.48,0,0,0-15.22,4.16q-6.08,3-8.77,7.36a12.53,12.53,0,0,0-2.22,8.2q.65,5.32,6.81,9.19t24.16,6.07q30.47,4,44.9,8.5t22.65,12.61q8.24,8.06,9.77,20.7,2.61,21.51-16.68,39.15-17.61,16.21-47.15,19.79A103.85,103.85,0,0,1,92,455.3a80.55,80.55,0,0,1-27.16-10.54l-8.77,16.59-17.58,2.14L31,401.28l24.59-4.56a61.28,61.28,0,0,0,16.57,20.1A66.45,66.45,0,0,0,96,429.45a64.66,64.66,0,0,0,25.78,2.11q14.28-1.74,21.46-7.95t6.25-13.87q-.69-5.65-6.11-9.5t-20.54-5.83q-31.27-4.53-44.07-7.82t-19.93-8a40.08,40.08,0,0,1-11.74-12A36,36,0,0,1,41.5,351.4q-1.48-12.21,5.13-24T68.33,307q15.06-8.58,35-11a92.75,92.75,0,0,1,28.72.8A72.31,72.31,0,0,1,152.24,304l6.3-12Z" transform="translate(-8.46 -9.67)"/><path class="cls-12" d="M257.94,271.8l11.42-1.39-9,73.4A84.28,84.28,0,0,1,274.48,329a63.87,63.87,0,0,1,31.34-13q11.34-1.37,19.79,1a29.09,29.09,0,0,1,13.86,8.34,23.22,23.22,0,0,1,6.26,13,31.27,31.27,0,0,1,.22,4.81q0,1.13-.74,6.95L340.46,391a53.26,53.26,0,0,0-.64,8.74,4.37,4.37,0,0,0,2,3.13,5.48,5.48,0,0,0,3.92,1,15.46,15.46,0,0,0,5.76-2.22,51.75,51.75,0,0,0,9-7.56L376,406.88q-11.34,11.63-20.71,16.81a52.56,52.56,0,0,1-19.21,6.38q-13.58,1.65-23.2-4.39t-10.78-15.57a70.35,70.35,0,0,1,.4-15.91l4.07-32.67q1-8.46.71-11.34a6.08,6.08,0,0,0-3-4.64,10.12,10.12,0,0,0-6.71-1.15q-9,1.1-17.75,9.46-11.06,10.45-19,30.89a170,170,0,0,0-9.54,36.48L248.81,438l-38.38,4.66L227,306.83l-19,2.31L210.83,287Q233.55,283.2,257.94,271.8Z" transform="translate(-8.46 -9.67)"/><path class="cls-12" d="M442.52,299.46q25.25-3.06,43.75,7.69t21.15,32.48a63.53,63.53,0,0,1-6.2,35.63,71.73,71.73,0,0,1-24.43,28.62Q460.74,415,439.27,417.55q-27.43,3.33-45.19-8.3t-20.39-33.36a61,61,0,0,1,6-34.88,70.66,70.66,0,0,1,24.72-27.87Q420.92,302.08,442.52,299.46Zm1.6,22.76a26.38,26.38,0,0,0-14.82,7.2q-6.75,6.22-10.85,19.49A63,63,0,0,0,416,375.37q1.29,10.65,7,15.41a17.38,17.38,0,0,0,13.79,3.78A27.43,27.43,0,0,0,452,387.49q6.76-6.06,10.88-19.16a63,63,0,0,0,2.45-26.85q-1.31-10.75-7-15.52T444.12,322.22Z" transform="translate(-8.46 -9.67)"/><path class="cls-12" d="M537.57,319.43l-15.24,1.85,2.59-21.77q25.65-5.92,42.41-15.19l11-1.34L576,304.47q6.62-9.2,12.61-14a58.79,58.79,0,0,1,14-8.11A63.29,63.29,0,0,1,619.39,278a48.29,48.29,0,0,1,23.5,2.49A39,39,0,0,1,660.44,294q7,9.45,8.64,22.86,2.22,18.3-6.65,37.09a75.23,75.23,0,0,1-25,30.16,78.61,78.61,0,0,1-36.27,13.8,63.26,63.26,0,0,1-17.38-.1,68.69,68.69,0,0,1-17.41-5.56L563.61,417a35.36,35.36,0,0,0-.46,6.36,4.15,4.15,0,0,0,3.37,3.64q2.18.64,10.13-.33l5.42-.66-3.13,22.1-76.36,9.27,2.53-22,4.21-.51q7.84-.94,10.2-2.08a7.89,7.89,0,0,0,3.62-3.47q1.26-2.36,2.15-9.66Zm32,49.87q11.1,8.13,22.89,6.7,8.81-1.06,17-7.74t13.27-20.06a55.11,55.11,0,0,0,3.49-26.47q-1-8.55-5.84-12.4t-11.8-3q-7.65.93-16,8.29T577.1,338.15a89.4,89.4,0,0,0-6.58,23.7Z" transform="translate(-8.46 -9.67)"/><path class="cls-12" d="M735.79,263.87l12.28-1.49-11.49,79.84c-.82,5.57-1.16,8.9-1,10a3.87,3.87,0,0,0,1.69,2.89,5.11,5.11,0,0,0,3.64.73q6-.72,14-9.79l14.88,13.16q-17.15,20.31-38.7,22.92-9.54,1.17-16.51-1.09a25.69,25.69,0,0,1-11.69-7.64q-4.71-5.39-5.39-10.93a50,50,0,0,1,0-7,102.27,102.27,0,0,1,1-11.91l6.35-44.35-24.85,3,3.22-22.11A301.43,301.43,0,0,0,735.79,263.87ZM726,215q9.39-1.14,15.29,3.65a18.3,18.3,0,0,1,6.84,12.45,20.59,20.59,0,0,1-1.92,11.26,23.53,23.53,0,0,1-8.19,9.49,24.91,24.91,0,0,1-11.2,4.56,23.53,23.53,0,0,1-10.74-1.28,19.12,19.12,0,0,1-8.76-5.91,17.1,17.1,0,0,1-3.88-9,20.38,20.38,0,0,1,2.14-11.4,23.41,23.41,0,0,1,8.08-9.42A27.49,27.49,0,0,1,726,215Z" transform="translate(-8.46 -9.67)"/><path class="cls-13" d="M171.64,294c1.16,3.61,2.14,7.25,3.05,10.9s1.72,7.33,2.5,11,1.47,7.39,2.07,11.1,1.17,7.45,1.53,11.22c-1.17-3.6-2.15-7.24-3-10.9s-1.73-7.33-2.51-11-1.46-7.38-2.07-11.1S172,297.8,171.64,294Z" transform="translate(-8.46 -9.67)"/><path class="cls-13" d="M96.91,318.43a31.18,31.18,0,0,0-6.55,1.95,33.13,33.13,0,0,0-5.9,3.18,32.33,32.33,0,0,0-2.64,2,27.08,27.08,0,0,0-2.42,2.25A36.55,36.55,0,0,0,75.27,333l.09-.16a12,12,0,0,0-.56,1.64,15.83,15.83,0,0,0-.38,1.79,13.94,13.94,0,0,0,0,3.65,14.58,14.58,0,0,0,2.67,6.84,18.51,18.51,0,0,0,2.48,2.93,28.12,28.12,0,0,0,3,2.57,56,56,0,0,0,6.8,4.32,33.8,33.8,0,0,1-7.64-3,23.05,23.05,0,0,1-6.53-5.32,16.25,16.25,0,0,1-3.6-7.92,16.85,16.85,0,0,1,0-4.43,14,14,0,0,1,1.22-4.36l0-.08,0-.08a31.78,31.78,0,0,1,4.67-5.49,28,28,0,0,1,5.82-4.21,26.83,26.83,0,0,1,6.63-2.58A21.78,21.78,0,0,1,96.91,318.43Z" transform="translate(-8.46 -9.67)"/><path class="cls-13" d="M153.34,368.76a48.69,48.69,0,0,1,19.49,11.51,31.67,31.67,0,0,1,6.77,9.49A27.27,27.27,0,0,1,182,401.31a32.47,32.47,0,0,1-2.51,11.43,49.69,49.69,0,0,1-5.64,10.05,81.89,81.89,0,0,1-15.92,16.12,132.79,132.79,0,0,0,14-17.43c.5-.78.92-1.59,1.39-2.38s1-1.56,1.34-2.4l1.2-2.46c.41-.81.66-1.69,1-2.53A30.46,30.46,0,0,0,179,401.25a24.94,24.94,0,0,0-2-10.36,32.15,32.15,0,0,0-5.85-9A61.63,61.63,0,0,0,153.34,368.76Z" transform="translate(-8.46 -9.67)"/><path class="cls-13" d="M295.16,327.58a45.36,45.36,0,0,1,15.64-2.43,35.91,35.91,0,0,1,8,1,26.9,26.9,0,0,1,7.6,3.18,21.76,21.76,0,0,1,6.05,5.74,23.32,23.32,0,0,1,3.28,7.57,34.54,34.54,0,0,1-.36,15.87,49.44,49.44,0,0,0-1.9-15.23,23.26,23.26,0,0,0-3.33-6.55,19.54,19.54,0,0,0-5.34-4.87,25.5,25.5,0,0,0-6.74-3,42.5,42.5,0,0,0-7.42-1.43A78.78,78.78,0,0,0,295.16,327.58Z" transform="translate(-8.46 -9.67)"/><path class="cls-13" d="M235.69,283.36q-1.62,19-3.8,37.89c-.69,6.31-1.49,12.61-2.23,18.91L227.26,359,224.7,377.9c-.9,6.28-1.76,12.57-2.72,18.84q-2.78,18.84-6.12,37.59,1.62-19,3.8-37.89c.69-6.31,1.49-12.6,2.23-18.91l2.4-18.88,2.56-18.86c.91-6.28,1.76-12.57,2.73-18.84Q232.34,302.13,235.69,283.36Z" transform="translate(-8.46 -9.67)"/><path class="cls-13" d="M322.61,423.66a45.22,45.22,0,0,0,12.32,1,41.38,41.38,0,0,0,6-.78,34.3,34.3,0,0,0,5.8-1.66,45.06,45.06,0,0,0,10.65-5.71,83.29,83.29,0,0,0,9.46-8.1,37.6,37.6,0,0,1-8,9.93,34.42,34.42,0,0,1-11.08,6.7,32.69,32.69,0,0,1-12.83,2A28.05,28.05,0,0,1,322.61,423.66Z" transform="translate(-8.46 -9.67)"/><path class="cls-13" d="M478.17,309.28a57.94,57.94,0,0,1,10,9.15,61.47,61.47,0,0,1,7.77,11.22,49.87,49.87,0,0,1,4.76,12.92,44.22,44.22,0,0,1,.75,13.82,51.43,51.43,0,0,1-3.4,13.4c-.47,1-1,2.09-1.46,3.13-.26.51-.48,1-.75,1.55l-.86,1.49c-.58,1-1.12,2-1.73,3l-2,2.81a85.21,85.21,0,0,1-19.19,19c6.43-6.28,12.5-12.91,17.25-20.37l1.75-2.81c.55-.94,1-1.93,1.57-2.9l.77-1.45c.26-.49.45-1,.67-1.5.43-1,.89-2,1.3-3a50.48,50.48,0,0,0,3.06-12.65,47.5,47.5,0,0,0-4.62-25.4A68.92,68.92,0,0,0,487,319.35,75.12,75.12,0,0,0,478.17,309.28Z" transform="translate(-8.46 -9.67)"/><path class="cls-13" d="M631.18,289.81a50.76,50.76,0,0,1,11.52,6.54,48.15,48.15,0,0,1,9.57,9.35,38.89,38.89,0,0,1,6.3,12,37.51,37.51,0,0,1,1.56,13.52l-.16,1.7a10.56,10.56,0,0,1-.22,1.69l-.63,3.35a53.1,53.1,0,0,1-2,6.45A65.14,65.14,0,0,1,651,356.32a101.78,101.78,0,0,1-17.45,19.9A154.18,154.18,0,0,0,649,355.09c.54-.93,1-1.9,1.53-2.85s1.08-1.88,1.48-2.88l1.32-2.94.33-.73.27-.76.54-1.51a55.3,55.3,0,0,0,1.84-6.13l.56-3.13a12,12,0,0,0,.19-1.57l.13-1.58a36.86,36.86,0,0,0-6.75-23.93,52.56,52.56,0,0,0-8.62-9.59A64,64,0,0,0,631.18,289.81Z" transform="translate(-8.46 -9.67)"/><path class="cls-13" d="M739.46,270.41c-.53,7.27-1.35,14.5-2.27,21.71-.44,3.61-1,7.2-1.47,10.8l-1.63,10.78-1.79,10.75c-.65,3.57-1.25,7.16-2,10.72-1.36,7.14-2.82,14.27-4.58,21.35.52-7.28,1.34-14.51,2.27-21.72.43-3.6,1-7.2,1.46-10.8l1.64-10.77,1.79-10.75c.66-3.58,1.26-7.16,2-10.73C736.24,284.61,737.71,277.49,739.46,270.41Z" transform="translate(-8.46 -9.67)"/></svg>