<svg xmlns="http://www.w3.org/2000/svg" viewBox="0 0 3406.34 1162.84"><defs><style>.cls-1{font-size:464.09px;fill:#ff7fb8;font-family:YoghurtBlack, Yoghurt Black;}.cls-2,.cls-4{fill:none;}.cls-2{stroke:#17ff1f;stroke-width:29.03px;}.cls-2,.cls-4,.cls-5{stroke-miterlimit:10;}.cls-3{font-size:239.02px;fill:#fff;font-family:BaskOldFace, Baskerville Old Face;}.cls-4{stroke:#00208b;stroke-width:8.99px;}.cls-5{stroke:#000;stroke-width:0.69px;}.cls-6{fill:#e23703;}</style></defs><g id="Capa_2" data-name="Capa 2"><g id="Capa_1-2" data-name="Capa 1"><text class="cls-1" transform="matrix(3.07, -0.29, 0.08, 1, 720.47, 929.16)">mega</text><path class="cls-2" d="M2412.38,295.13s434.3,247,942.86-92.78c0,0-287.39,439.38-40.1,946,7.39,3.43-363.77-348.66-927.44-97.74"/><text class="cls-3" transform="translate(2452.74 908) scale(1.45 1)">store</text><path class="cls-4" d="M2681.55,460.19S2675,131.82,2840.7,18.7c0,0,45.71-32,70.47,0,0,0,54.71,32.73,40.43,446.42"/><ellipse class="cls-5" cx="2953.98" cy="465.12" rx="15.24" ry="16.36"/><ellipse class="cls-5" cx="2681.51" cy="465.12" rx="15.24" ry="16.36"/><path class="cls-6" d="M698.29,708.21c-10.54-129.35-129.7-223.82-266.17-211s-238.55,128.08-228,257.43c7.51,92.22,70.24,166.7,155.09,197.22l-71.84,6.75L289.67,987l174.72-16.42-2.31-28.39-13.76,1.29c-98.94-.71-144.08-102-152.23-202-8.69-106.66,33.33-175.07,140.85-185.17s152.79,78.51,161.48,185.17c8.14,100-12.78,179.05-110.09,198.21l-11.76,1.1,2.32,28.39L653.61,952.8l-2.32-28.39-73.85,6.94C656.07,885.48,705.8,800.43,698.29,708.21Z"/><polygon class="cls-6" points="182.42 820.22 41.4 837.85 40.04 815.55 181.06 797.92 182.42 820.22"/><polygon class="cls-6" points="176.8 728.36 35.78 746 34.42 723.7 175.43 706.06 176.8 728.36"/><polygon class="cls-6" points="203.02 859.33 87.45 873.78 86.09 851.49 201.66 837.03 203.02 859.33"/><polygon class="cls-6" points="191.5 671.02 75.93 685.47 74.56 663.17 190.13 648.72 191.5 671.02"/><polygon class="cls-6" points="162.85 776.38 1.36 796.58 0 774.28 161.49 754.09 162.85 776.38"/></g></g></svg>