<svg id="Capa_1" data-name="Capa 1" xmlns="http://www.w3.org/2000/svg" viewBox="0 0 2886 1587.4"><defs><style>.cls-1,.cls-3{fill:#72ff2e;}.cls-1,.cls-3,.cls-4{stroke:#ff1731;}.cls-1,.cls-3,.cls-4,.cls-5,.cls-6{stroke-miterlimit:10;}.cls-1{stroke-width:1.95px;}.cls-2{fill:#545050;}.cls-3,.cls-4,.cls-5{stroke-width:1.89px;}.cls-4{fill:#31a7ff;}.cls-5,.cls-6{fill:none;stroke:#000;}.cls-6{stroke-width:3px;}</style></defs><path class="cls-1" d="M2498.69,244.3s-58,14.5-87,63c0,0-22.5,27-32,109.5s71,149.5,71,149.5,54.5-22.5,94-116.5,4.5-158,4.5-158S2531.69,259.8,2498.69,244.3Z"/><rect class="cls-2" x="6" y="6" width="2886" height="1581.4"/><path class="cls-1" d="M2361.37,606.75l192.26-36.62s-50.45,17.63-47.45,191.63l-7,286.74-295,60s139-50.74,145.54-152.31C2354.73,878.47,2361.37,606.75,2361.37,606.75Z"/><path class="cls-1" d="M2310.55,710s-48-120-164-136c0,0-125.78-25.82-318.78,17.18L1785.55,1568l172-120,12-313.8s239,15.8,324-125.2C2293.55,1009,2381.55,891,2310.55,710Zm-145,210.5c-88.5,78-196,48-196,48v-264c134.33-.53,162,14,162,14C2186.55,738,2244.62,850.8,2165.55,920.49Z"/><path class="cls-1" d="M1640.55,566.3c-154.64,0-280,123.57-280,276s125.36,276,280,276,280-123.57,280-276S1795.19,566.3,1640.55,566.3Zm0,403.65C1566.24,970,1506,912.8,1506,842.3s60.24-127.65,134.55-127.65,134.54,57.15,134.54,127.65S1714.85,970,1640.55,970Z"/><path class="cls-3" d="M920.1,197.17s54.45-23.55,130.45-23.55c0,0,39.56,12.25,37.49,52.25-1.93,37.22-9.48,351.25,14.51,413.75,0,0,150-130,328,0,0,0,66,76,36,212l-12,238s-1.34,23.67-35,27c-40,4-83,.79-97-8,0,0-26.67-3.33-24-50l3.5-212S1176.6,753.48,1094.6,851l-6,224.59c-.27.29,3,26-17,41.37l-147.47-2.32s-26.54-5.27-23.5-30.5c.13-1.13.22-6.3.5-7.5Z"/><path class="cls-4" d="M871.55,166.59s-124-69.5-216.5-74c0,0-140.5-1.5-198.5,23.5s-99,65.5-134,122c0,0-51,83.5-30,162.5s22,111,99,172c0,0-83,21-138,130s-8,217-7,221,19,95,137,167,359-6,359-6,134-39,202-149,82-151,58-273-122-156-122-156S939.55,360.59,871.55,166.59Z"/><path class="cls-5" d="M840.55,631.57s-184,58-449-59"/><path class="cls-6" d="M584.55,521.57s136-52,296-15"/></svg>