<svg id="Capa_1" data-name="Capa 1" xmlns="http://www.w3.org/2000/svg" viewBox="0 0 7086.61 1587.4"><defs><style>.cls-1{font-size:627.17px;font-family:YoghurtBlack, Yoghurt Black;}.cls-1,.cls-3{fill:#fff;}.cls-2,.cls-4{fill:none;}.cls-2{stroke:#17ff1f;stroke-width:42px;}.cls-2,.cls-4,.cls-5{stroke-miterlimit:10;}.cls-3{font-size:322.67px;font-family:BaskOldFace, Baskerville Old Face;}.cls-4{stroke:#00208b;stroke-width:13px;}.cls-5{stroke:#000;}.cls-6{fill:#e23703;}</style></defs><text class="cls-1" transform="matrix(3.52, -0.29, 0.09, 1, 1961.71, 1269.9)">mega</text><path class="cls-2" d="M4584.19,414s673.17,333.46,1461.45-125.24c0,0-445.45,593.15-62.17,1277,11.46,4.63-563.84-470.69-1437.53-132"/><text class="cls-3" transform="translate(4646.75 1241.33) scale(1.66 1)">store</text><path class="cls-4" d="M5001.4,636.8s-10.11-443.28,246.7-596c0,0,70.84-43.15,109.22,0,0,0,84.8,44.18,62.67,602.65"/><ellipse class="cls-5" cx="5423.67" cy="643.46" rx="23.62" ry="22.09"/><ellipse class="cls-5" cx="5001.35" cy="643.46" rx="23.62" ry="22.09"/><path class="cls-6" d="M1927.33,971.62C1911,797,1726.28,669.48,1514.76,686.79S1145,859.69,1161.34,1034.31c11.65,124.49,108.88,225,240.39,266.23l-111.35,9.12L1294,1348l270.82-22.16-3.59-38.33-21.34,1.75c-153.35-1-223.32-137.69-235.95-272.64-13.46-144,51.66-236.35,218.32-250s236.83,106,250.3,250c12.62,134.95-19.81,241.7-170.65,267.56l-18.22,1.5,3.59,38.32,270.82-22.16-3.59-38.33L1740,1272.86C1861.88,1210.93,1939,1096.12,1927.33,971.62Z"/><polygon class="cls-6" points="1127.72 1122.83 909.14 1146.64 907.03 1116.54 1125.61 1092.73 1127.72 1122.83"/><polygon class="cls-6" points="1119.01 998.83 900.43 1022.64 898.31 992.54 1116.89 968.73 1119.01 998.83"/><polygon class="cls-6" points="1159.65 1175.63 980.52 1195.15 978.4 1165.04 1157.54 1145.53 1159.65 1175.63"/><polygon class="cls-6" points="1141.79 921.42 962.65 940.93 960.54 910.83 1139.67 891.32 1141.79 921.42"/><polygon class="cls-6" points="1097.39 1063.66 847.08 1090.93 844.97 1060.82 1095.27 1033.56 1097.39 1063.66"/></svg>