<svg id="Capa_1" data-name="Capa 1" xmlns="http://www.w3.org/2000/svg" viewBox="0 0 101 50"><defs><style>.cls-1{fill:#545050;}.cls-2,.cls-5{stroke:#000;}.cls-2,.cls-4,.cls-5{stroke-miterlimit:10;}.cls-2{stroke-width:0.25px;}.cls-3{fill:#ff601d;}.cls-4,.cls-5{fill:none;}.cls-4{stroke:#d4ff00;}.cls-5{stroke-width:0.5px;}</style></defs><rect class="cls-1" x="-37" width="180" height="50"/><ellipse class="cls-2" cx="83.35" cy="15.41" rx="0.76" ry="0.57"/><ellipse class="cls-2" cx="69.64" cy="15.41" rx="0.76" ry="0.57"/><path class="cls-3" d="M20.62,37.49a23.85,23.85,0,0,0-6-1.27,20.44,20.44,0,0,1-5.59-1.16,2.4,2.4,0,0,1-1.52-1.72c-.16-1,.62-1.93,2.34-2.83a16.54,16.54,0,0,1,6-1.71,8.74,8.74,0,0,1,2.8.08c.77.17,1.25.81,1.43,1.93.9-.1,1.42-.43,1.56-1a3.63,3.63,0,0,0,.13-1.29c-.1-.59-.68-1.09-1.75-1.47a10.05,10.05,0,0,0-4.36-.29A19.75,19.75,0,0,0,8,29.23q-3.56,2-3.13,4.65a4,4,0,0,0,1.61,2.47c.92.73,3.18,1.35,6.77,1.84a43.05,43.05,0,0,1,5.45,1c.74.24,1.13.54,1.19.88q.2,1.22-3,3a16.2,16.2,0,0,1-6.17,2.09A12.3,12.3,0,0,1,7.27,45a2.11,2.11,0,0,0-.66,0c-.21,0-.38.22-.51.61a2,2,0,0,0-.15,1c.06.36.44.63,1.14.8a9.54,9.54,0,0,0,3,0,22.57,22.57,0,0,0,5.48-1.44,16.51,16.51,0,0,0,5.26-3c1.39-1.23,2-2.3,1.86-3.22A3,3,0,0,0,20.62,37.49Z"/><path class="cls-3" d="M41.52,40.22a9.13,9.13,0,0,1-2.58-4.68,11.5,11.5,0,0,0-1.7-4,2,2,0,0,0-1.81-.74q-3.84.41-8.37,9.72H27c-.12,0-.18,0-.2-.13A23.85,23.85,0,0,1,27,36.51c.19-2.12.41-3.88.66-5.26A20.38,20.38,0,0,0,28,24.72a1.58,1.58,0,0,0-.76-1.17A2,2,0,0,0,26,23.24c-.25,0-.54.27-.85.71a4.58,4.58,0,0,0-.43,2.53q.13,8-.53,16.19a7,7,0,0,0,0,1.39,1,1,0,0,0,.61.75A2.08,2.08,0,0,0,26,45a2,2,0,0,0,1.21-.78,18.92,18.92,0,0,0,1.79-3q4-7.49,5.63-7.66a1.14,1.14,0,0,1,1.13.7,18.45,18.45,0,0,1,1.13,3.37,7.48,7.48,0,0,0,1.85,3.75,3,3,0,0,0,2.38.87,2,2,0,0,0,1-.38c.29-.22.42-.44.38-.66S42.08,40.68,41.52,40.22Z"/><path class="cls-3" d="M54.27,29.3a6,6,0,0,0-4.38-1.11,8.06,8.06,0,0,0-6.11,3.88,9.38,9.38,0,0,0-1.73,6.72A4.5,4.5,0,0,0,44,41.88a5.39,5.39,0,0,0,3.81.93,9.92,9.92,0,0,0,6.36-3.54q2.82-3.15,2.3-6.44A5.35,5.35,0,0,0,54.27,29.3Zm-2.1,8.91a7,7,0,0,1-4.44,2.57,2.35,2.35,0,0,1-1.92-.61,3.29,3.29,0,0,1-1-2,7.78,7.78,0,0,1,1.07-4.95,5.06,5.06,0,0,1,4-3,3.38,3.38,0,0,1,2.61.7,3.74,3.74,0,0,1,1.33,2.42A5.77,5.77,0,0,1,52.17,38.21Z"/><path class="cls-3" d="M73.32,26.28a4.32,4.32,0,0,0-2.88-.66A8.5,8.5,0,0,0,65.8,28a19.85,19.85,0,0,0-4.21,5.67c0-.22,0-1.08,0-2.58a15.84,15.84,0,0,0-.16-3,2.34,2.34,0,0,0-.56-1.3,1,1,0,0,0-.81-.4,1.94,1.94,0,0,0-1.37.78,2.52,2.52,0,0,0-.29,2l.19,1.06A55.66,55.66,0,0,1,58.34,47a6.24,6.24,0,0,0-.09,2c0,.16.27.35.73.57a2.34,2.34,0,0,0,1.19.28,1.25,1.25,0,0,0,.8-.6,2,2,0,0,0,.42-1.07l.06-2.43a42.43,42.43,0,0,1,.44-6.53,4.8,4.8,0,0,0,1.36,1.25,2.73,2.73,0,0,0,1.56.22q3.76-.41,7.22-4.2c2.29-2.52,3.22-5.16,2.77-7.9A3.23,3.23,0,0,0,73.32,26.28Zm-3.34,9q-2.53,3-4.81,3.23a3.12,3.12,0,0,1-1.73-.25c-.48-.24-.74-.51-.79-.81-.2-1.24.62-3.09,2.48-5.55s3.52-3.77,5-3.93a1.62,1.62,0,0,1,1.25.37,2.13,2.13,0,0,1,.7,1.37C72.38,31.39,71.67,33.24,70,35.24Z"/><path class="cls-3" d="M80.23,25.77a2.43,2.43,0,0,0-1.34-.17,1.1,1.1,0,0,0-.94.67,2.39,2.39,0,0,0-.15,1.4,13.18,13.18,0,0,1-.07,2.2,35.71,35.71,0,0,0,0,7.48c.24,1.5.88,2.19,1.91,2.08a1.81,1.81,0,0,0,1-.48c.32-.28.46-.49.44-.64a1.5,1.5,0,0,0-.13-.37,8.52,8.52,0,0,1-.68-2.13A18.69,18.69,0,0,1,80,32.36a38.94,38.94,0,0,1,.72-4.93,3.15,3.15,0,0,0,.06-1A.92.92,0,0,0,80.23,25.77Z"/><path class="cls-3" d="M82.54,18.06q0-.25-.66-.48a2.49,2.49,0,0,0-1.08-.18,2.83,2.83,0,0,0-1.6.71c-.45.4-.64.77-.59,1.11a3.56,3.56,0,0,0,.66,1.38,3.74,3.74,0,0,1,.24.37c.18.37.38.54.6.52A4,4,0,0,0,81.36,21a2.09,2.09,0,0,0,1-1.48A4.47,4.47,0,0,0,82.54,18.06Z"/><path d="M77,45.76a1.49,1.49,0,0,0-.59.29,4,4,0,0,1-1.57.73,1.14,1.14,0,0,1-.64-.08.75.75,0,0,1-.33-.56A4.65,4.65,0,0,1,74,44.9a4.67,4.67,0,0,1,.22-1,4.25,4.25,0,0,1,.9-.22c.56-.12,1.18-.22,1.86-.33.52-.08.76-.24.71-.45a.21.21,0,0,0-.18-.18,2.35,2.35,0,0,0-.69,0c-.28,0-.62.09-1,.17l-1.34.24.22-.89a2.77,2.77,0,0,0,.13-.61c0-.07-.09-.13-.22-.2a.84.84,0,0,0-.49-.07.58.58,0,0,0-.57.51c0,.3-.12.6-.2.91a1.45,1.45,0,0,1-.22.55.44.44,0,0,1-.25.11l-1.44.17a.74.74,0,0,0-.19,0c.06-.06.1-.12.08-.19a.44.44,0,0,0-.34-.35,2.25,2.25,0,0,0-.85,0,6.4,6.4,0,0,0-2.17.81c-.85.46-1.23,1-1.11,1.49,0,.21.25.38.62.5a13.69,13.69,0,0,0,2.07.44c.8.13,1.21.29,1.25.46a2.1,2.1,0,0,1-1,.5,9.94,9.94,0,0,1-1.64.36h-.8a1.78,1.78,0,0,0-.5.14c-.16.06-.23.15-.21.25.07.3.48.4,1.24.31a11.71,11.71,0,0,0,2.75-.7c.94-.35,1.36-.73,1.27-1.14,0-.22-.24-.4-.59-.52a7,7,0,0,0-1.37-.31,8.88,8.88,0,0,1-1.46-.29c-.28-.09-.43-.21-.46-.36s.25-.51.93-.79a6.33,6.33,0,0,1,1.36-.47,1.31,1.31,0,0,1,.31,0,1.31,1.31,0,0,0,.31,0,.48.48,0,0,0,.19-.08.19.19,0,0,0,0,.15q.09.4,1,.3l.72-.13c.11,0,.18,0,.18,0a4.06,4.06,0,0,1-.12,1.08,3.77,3.77,0,0,0-.07,1.33c.16.76.81,1.08,1.94.94a4.34,4.34,0,0,0,1.89-.7q.87-.59.81-.87C77.33,45.79,77.21,45.74,77,45.76Z"/><path d="M83.06,42.36a3.22,3.22,0,0,0-1.92-.28,4.09,4.09,0,0,0-2.7,1.37,2.53,2.53,0,0,0-.78,2.19,1.41,1.41,0,0,0,.84,1,3.06,3.06,0,0,0,1.68.23A5.29,5.29,0,0,0,83,45.57a2.24,2.24,0,0,0,1-2.12A1.6,1.6,0,0,0,83.06,42.36Zm-1,2.9a3.66,3.66,0,0,1-2,.92,1.26,1.26,0,0,1-.85-.17.94.94,0,0,1-.44-.62,2.08,2.08,0,0,1,.49-1.62,2.43,2.43,0,0,1,1.77-1,1.94,1.94,0,0,1,1.15.18,1.08,1.08,0,0,1,.57.75A1.64,1.64,0,0,1,82.11,45.26Z"/><path d="M91.32,41.62c0-.19-.2-.34-.49-.45a2.16,2.16,0,0,0-1-.09,2.69,2.69,0,0,0-.61.14,3.66,3.66,0,0,0-.67.32,4.75,4.75,0,0,0-.77.61,7.65,7.65,0,0,0-.74.78,6.75,6.75,0,0,0-.66,1.1l-.13.22,0-.11,0-.15a5.3,5.3,0,0,1,0-.93,1.43,1.43,0,0,0,0-.29,3.69,3.69,0,0,1,.1-.47,1.14,1.14,0,0,0,0-.45.3.3,0,0,0-.18-.19.72.72,0,0,0-.41,0,1.11,1.11,0,0,0-.47.17A.51.51,0,0,0,85,42a1.28,1.28,0,0,0,0,.44c0,.19,0,.32,0,.37A7,7,0,0,0,85,44.1c.07.43.11.71.14.83a2.46,2.46,0,0,0,.37,1,.58.58,0,0,0,.56.23,1.22,1.22,0,0,0,.53-.17.5.5,0,0,0,.18-.45A3.67,3.67,0,0,1,87.9,43.1a3.47,3.47,0,0,1,1.81-1.26,1.12,1.12,0,0,1,.56.09,1.22,1.22,0,0,0,.57.08.59.59,0,0,0,.39-.15A.25.25,0,0,0,91.32,41.62Z"/><path d="M96.82,43a.76.76,0,0,0-.32.17,5.42,5.42,0,0,1-2.87,1.33,2,2,0,0,1-1-.08.68.68,0,0,1-.46-.49c0-.12.08-.23.31-.33A15,15,0,0,0,95,42.13c.62-.46.89-.9.8-1.31a.64.64,0,0,0-.43-.44,1.87,1.87,0,0,0-.91-.09,4.37,4.37,0,0,0-2.73,1.4A2.62,2.62,0,0,0,90.88,44a1.38,1.38,0,0,0,.84,1,3.59,3.59,0,0,0,1.83.17,5.85,5.85,0,0,0,2.49-.9c.76-.49,1.11-.87,1-1.15A.21.21,0,0,0,96.82,43Zm-3.88-1.33a2.58,2.58,0,0,1,1.34-.72c.25,0,.39,0,.43.2.09.41-.79,1.07-2.63,2A2.67,2.67,0,0,1,92.94,41.66Z"/><path class="cls-4" d="M90.92,10.82,97,34.91l-6.08,3.45V10.82C80.28,15.41,60.52,12,60.52,12A24.61,24.61,0,0,1,59,24.59"/><line class="cls-4" x1="84.11" y1="38.36" x2="91" y2="38.36"/><path class="cls-5" d="M69.64,15.41c.71,2.93,4.35-33.84,13.71,0"/></svg>