<svg id="Capa_1" data-name="Capa 1" xmlns="http://www.w3.org/2000/svg" viewBox="0 0 7086.61 1587.4"><defs><style>.cls-1{font-size:627.17px;font-family:YoghurtBlack, Yoghurt Black;}.cls-1,.cls-3{fill:#fff;}.cls-2,.cls-4{fill:none;}.cls-2{stroke:#17ff1f;stroke-width:42px;}.cls-2,.cls-4,.cls-5{stroke-miterlimit:10;}.cls-3{font-size:322.67px;font-family:BaskOldFace, Baskerville Old Face;}.cls-4{stroke:#00208b;stroke-width:13px;}.cls-5{stroke:#000;}.cls-6{fill:#e23703;}</style></defs><text class="cls-1" transform="matrix(3.52, -0.29, 0.09, 1, 1755.51, 1269.9)">mega</text><path class="cls-2" d="M4378,414s673.17,333.46,1461.44-125.24c0,0-445.45,593.15-62.16,1277,11.46,4.63-563.84-470.69-1437.54-132"/><text class="cls-3" transform="translate(4440.56 1241.33) scale(1.66 1)">store</text><path class="cls-4" d="M4795.21,636.8s-10.11-443.28,246.69-596c0,0,70.85-43.15,109.22,0,0,0,84.81,44.18,62.67,602.65"/><ellipse class="cls-5" cx="5217.48" cy="643.46" rx="23.62" ry="22.09"/><ellipse class="cls-5" cx="4795.15" cy="643.46" rx="23.62" ry="22.09"/><path class="cls-6" d="M1721.13,971.62c-16.33-174.62-201-302.14-412.56-284.83s-369.76,172.9-353.42,347.52c11.64,124.49,108.87,225,240.39,266.23l-111.36,9.12,3.59,38.32,270.82-22.16-3.59-38.33-21.33,1.75c-153.35-1-223.33-137.69-236-272.64-13.47-144,51.65-236.35,218.31-250s236.83,106,250.3,250c12.62,134.95-19.8,241.7-170.64,267.56l-18.22,1.5,3.58,38.32,270.82-22.16-3.58-38.33-114.47,9.37C1655.69,1210.93,1732.77,1096.12,1721.13,971.62Z"/><polygon class="cls-6" points="921.52 1122.83 702.95 1146.64 700.83 1116.54 919.41 1092.73 921.52 1122.83"/><polygon class="cls-6" points="912.81 998.83 694.23 1022.64 692.12 992.54 910.7 968.73 912.81 998.83"/><polygon class="cls-6" points="953.46 1175.63 774.32 1195.15 772.2 1165.04 951.34 1145.53 953.46 1175.63"/><polygon class="cls-6" points="935.59 921.42 756.46 940.93 754.34 910.83 933.48 891.32 935.59 921.42"/><polygon class="cls-6" points="891.19 1063.66 640.89 1090.93 638.77 1060.82 889.08 1033.56 891.19 1063.66"/></svg>